<?xml version="1.0" encoding="UTF-8"?>
<svg id="SVGDoc" width="6" height="11" xmlns="http://www.w3.org/2000/svg" version="1.1" xmlns:xlink="http://www.w3.org/1999/xlink" xmlns:avocode="https://avocode.com/" viewBox="0 0 6 11"><defs></defs><desc>Generated with Avocode.</desc><g><g><title>Rounded Rectangle 1 copy 2</title><path d="M5.67855,10.01664c-0.17063,0.15921 -0.44746,0.15921 -0.6181,0l-4.945,-4.6107c-0.00007,-0.00007 -0.00015,-0.00014 -0.00022,-0.0002c-0.17075,-0.15921 -0.17075,-0.41745 0,-0.57632c0.00007,-0.00006 0.00013,-0.00012 0.0002,-0.00018l4.94503,-4.61106c0.17063,-0.15921 0.44746,-0.15921 0.6181,0c0.17075,0.15887 0.17075,0.41745 0,0.57666l-4.63617,4.32274l4.63617,4.32274c0.17075,0.15921 0.17075,0.41711 0,0.57632z" fill="#000000" fill-opacity="1"></path><path d="M5.67855,10.01664c-0.17063,0.15921 -0.44746,0.15921 -0.6181,0l-4.945,-4.6107c-0.00007,-0.00007 -0.00015,-0.00014 -0.00022,-0.0002c-0.17075,-0.15921 -0.17075,-0.41745 0,-0.57632c0.00007,-0.00006 0.00013,-0.00012 0.0002,-0.00018l4.94503,-4.61106c0.17063,-0.15921 0.44746,-0.15921 0.6181,0c0.17075,0.15887 0.17075,0.41745 0,0.57666l-4.63617,4.32274l4.63617,4.32274c0.17075,0.15921 0.17075,0.41711 0,0.57632z" fill="#ffffff" fill-opacity="1"></path></g></g></svg>